<mxfile host="app.diagrams.net" modified="2024-07-18T01:44:00.726Z" agent="Mozilla/5.0 (Windows NT 10.0; Win64; x64) AppleWebKit/537.36 (KHTML, like Gecko) Chrome/126.0.0.0 Safari/537.36" etag="kVpQzhlJ5gw-gAwsMn-6" version="24.7.1" type="github">
  <diagram id="C5RBs43oDa-KdzZeNtuy" name="Page-1">
    <mxGraphModel dx="2868" dy="1492" grid="1" gridSize="10" guides="1" tooltips="1" connect="1" arrows="1" fold="1" page="1" pageScale="1" pageWidth="980" pageHeight="690" math="0" shadow="0">
      <root>
        <mxCell id="WIyWlLk6GJQsqaUBKTNV-0" />
        <mxCell id="WIyWlLk6GJQsqaUBKTNV-1" parent="WIyWlLk6GJQsqaUBKTNV-0" />
        <mxCell id="VkRTKcIYfJcJh1spQje6-2" value="main&lt;span style=&quot;white-space: pre;&quot;&gt;&#x9;&lt;/span&gt;" style="swimlane;fontStyle=1;align=center;verticalAlign=top;childLayout=stackLayout;horizontal=1;startSize=26;horizontalStack=0;resizeParent=1;resizeParentMax=0;resizeLast=0;collapsible=1;marginBottom=0;whiteSpace=wrap;html=1;" parent="WIyWlLk6GJQsqaUBKTNV-1" vertex="1">
          <mxGeometry x="30" y="185.5" width="160" height="34" as="geometry" />
        </mxCell>
        <mxCell id="VkRTKcIYfJcJh1spQje6-4" value="" style="line;strokeWidth=1;fillColor=none;align=left;verticalAlign=middle;spacingTop=-1;spacingLeft=3;spacingRight=3;rotatable=0;labelPosition=right;points=[];portConstraint=eastwest;strokeColor=inherit;" parent="VkRTKcIYfJcJh1spQje6-2" vertex="1">
          <mxGeometry y="26" width="160" height="8" as="geometry" />
        </mxCell>
        <mxCell id="VkRTKcIYfJcJh1spQje6-66" value="" style="endArrow=block;dashed=1;endFill=0;endSize=12;html=1;rounded=0;" parent="WIyWlLk6GJQsqaUBKTNV-1" source="rcq0nQvIJ5vLg4Cy14LK-0" target="rcq0nQvIJ5vLg4Cy14LK-5" edge="1">
          <mxGeometry width="160" relative="1" as="geometry">
            <mxPoint x="410" y="350" as="sourcePoint" />
            <mxPoint x="370" y="241" as="targetPoint" />
          </mxGeometry>
        </mxCell>
        <mxCell id="VkRTKcIYfJcJh1spQje6-67" value="" style="endArrow=diamondThin;endFill=1;endSize=24;html=1;rounded=0;entryX=1;entryY=0.5;entryDx=0;entryDy=0;" parent="WIyWlLk6GJQsqaUBKTNV-1" target="VkRTKcIYfJcJh1spQje6-2" edge="1" source="rcq0nQvIJ5vLg4Cy14LK-5">
          <mxGeometry width="160" relative="1" as="geometry">
            <mxPoint x="313" y="224" as="sourcePoint" />
            <mxPoint x="590" y="579" as="targetPoint" />
          </mxGeometry>
        </mxCell>
        <mxCell id="VkRTKcIYfJcJh1spQje6-68" value="" style="endArrow=diamondThin;endFill=1;endSize=24;html=1;rounded=0;entryX=0.5;entryY=1;entryDx=0;entryDy=0;" parent="WIyWlLk6GJQsqaUBKTNV-1" source="KXwamz8EoUctE45iLLeX-6" target="VkRTKcIYfJcJh1spQje6-2" edge="1">
          <mxGeometry width="160" relative="1" as="geometry">
            <mxPoint x="585" y="624" as="sourcePoint" />
            <mxPoint x="590" y="579" as="targetPoint" />
            <Array as="points">
              <mxPoint x="110" y="604" />
            </Array>
          </mxGeometry>
        </mxCell>
        <mxCell id="VkRTKcIYfJcJh1spQje6-71" value="" style="endArrow=block;dashed=1;endFill=0;endSize=12;html=1;rounded=0;" parent="WIyWlLk6GJQsqaUBKTNV-1" source="rcq0nQvIJ5vLg4Cy14LK-0" target="KXwamz8EoUctE45iLLeX-1" edge="1">
          <mxGeometry width="160" relative="1" as="geometry">
            <mxPoint x="490" y="340" as="sourcePoint" />
            <mxPoint x="545" y="241" as="targetPoint" />
          </mxGeometry>
        </mxCell>
        <mxCell id="VkRTKcIYfJcJh1spQje6-76" value="SignupParam" style="swimlane;fontStyle=1;align=center;verticalAlign=top;childLayout=stackLayout;horizontal=1;startSize=26;horizontalStack=0;resizeParent=1;resizeParentMax=0;resizeLast=0;collapsible=1;marginBottom=0;whiteSpace=wrap;html=1;" parent="WIyWlLk6GJQsqaUBKTNV-1" vertex="1">
          <mxGeometry x="1000" y="130" width="160" height="110" as="geometry" />
        </mxCell>
        <mxCell id="VkRTKcIYfJcJh1spQje6-77" value="- id: string&lt;div&gt;- password : string&lt;/div&gt;" style="text;strokeColor=none;fillColor=none;align=left;verticalAlign=top;spacingLeft=4;spacingRight=4;overflow=hidden;rotatable=0;points=[[0,0.5],[1,0.5]];portConstraint=eastwest;whiteSpace=wrap;html=1;" parent="VkRTKcIYfJcJh1spQje6-76" vertex="1">
          <mxGeometry y="26" width="160" height="34" as="geometry" />
        </mxCell>
        <mxCell id="VkRTKcIYfJcJh1spQje6-78" value="" style="line;strokeWidth=1;fillColor=none;align=left;verticalAlign=middle;spacingTop=-1;spacingLeft=3;spacingRight=3;rotatable=0;labelPosition=right;points=[];portConstraint=eastwest;strokeColor=inherit;" parent="VkRTKcIYfJcJh1spQje6-76" vertex="1">
          <mxGeometry y="60" width="160" height="8" as="geometry" />
        </mxCell>
        <mxCell id="VkRTKcIYfJcJh1spQje6-79" value="+ getID(): string&lt;div&gt;+ getPassword() : string&lt;/div&gt;" style="text;strokeColor=none;fillColor=none;align=left;verticalAlign=top;spacingLeft=4;spacingRight=4;overflow=hidden;rotatable=0;points=[[0,0.5],[1,0.5]];portConstraint=eastwest;whiteSpace=wrap;html=1;" parent="VkRTKcIYfJcJh1spQje6-76" vertex="1">
          <mxGeometry y="68" width="160" height="42" as="geometry" />
        </mxCell>
        <mxCell id="VkRTKcIYfJcJh1spQje6-80" value="LoginParam" style="swimlane;fontStyle=1;align=center;verticalAlign=top;childLayout=stackLayout;horizontal=1;startSize=26;horizontalStack=0;resizeParent=1;resizeParentMax=0;resizeLast=0;collapsible=1;marginBottom=0;whiteSpace=wrap;html=1;" parent="WIyWlLk6GJQsqaUBKTNV-1" vertex="1">
          <mxGeometry x="1000" y="250" width="160" height="108" as="geometry" />
        </mxCell>
        <mxCell id="VkRTKcIYfJcJh1spQje6-81" value="- id: string&lt;div&gt;- password : string&lt;/div&gt;" style="text;strokeColor=none;fillColor=none;align=left;verticalAlign=top;spacingLeft=4;spacingRight=4;overflow=hidden;rotatable=0;points=[[0,0.5],[1,0.5]];portConstraint=eastwest;whiteSpace=wrap;html=1;" parent="VkRTKcIYfJcJh1spQje6-80" vertex="1">
          <mxGeometry y="26" width="160" height="34" as="geometry" />
        </mxCell>
        <mxCell id="VkRTKcIYfJcJh1spQje6-82" value="" style="line;strokeWidth=1;fillColor=none;align=left;verticalAlign=middle;spacingTop=-1;spacingLeft=3;spacingRight=3;rotatable=0;labelPosition=right;points=[];portConstraint=eastwest;strokeColor=inherit;" parent="VkRTKcIYfJcJh1spQje6-80" vertex="1">
          <mxGeometry y="60" width="160" height="8" as="geometry" />
        </mxCell>
        <mxCell id="VkRTKcIYfJcJh1spQje6-83" value="+ getID(): string&lt;div&gt;+ getPassword() : string&lt;/div&gt;" style="text;strokeColor=none;fillColor=none;align=left;verticalAlign=top;spacingLeft=4;spacingRight=4;overflow=hidden;rotatable=0;points=[[0,0.5],[1,0.5]];portConstraint=eastwest;whiteSpace=wrap;html=1;" parent="VkRTKcIYfJcJh1spQje6-80" vertex="1">
          <mxGeometry y="68" width="160" height="40" as="geometry" />
        </mxCell>
        <mxCell id="VkRTKcIYfJcJh1spQje6-84" value="LogoutParam&lt;div&gt;&lt;br&gt;&lt;/div&gt;" style="swimlane;fontStyle=1;align=center;verticalAlign=top;childLayout=stackLayout;horizontal=1;startSize=26;horizontalStack=0;resizeParent=1;resizeParentMax=0;resizeLast=0;collapsible=1;marginBottom=0;whiteSpace=wrap;html=1;" parent="WIyWlLk6GJQsqaUBKTNV-1" vertex="1">
          <mxGeometry x="1000" y="368" width="160" height="34" as="geometry" />
        </mxCell>
        <mxCell id="VkRTKcIYfJcJh1spQje6-86" value="" style="line;strokeWidth=1;fillColor=none;align=left;verticalAlign=middle;spacingTop=-1;spacingLeft=3;spacingRight=3;rotatable=0;labelPosition=right;points=[];portConstraint=eastwest;strokeColor=inherit;" parent="VkRTKcIYfJcJh1spQje6-84" vertex="1">
          <mxGeometry y="26" width="160" height="8" as="geometry" />
        </mxCell>
        <mxCell id="VkRTKcIYfJcJh1spQje6-88" value="ChattingRoomParam" style="swimlane;fontStyle=1;align=center;verticalAlign=top;childLayout=stackLayout;horizontal=1;startSize=26;horizontalStack=0;resizeParent=1;resizeParentMax=0;resizeLast=0;collapsible=1;marginBottom=0;whiteSpace=wrap;html=1;" parent="WIyWlLk6GJQsqaUBKTNV-1" vertex="1">
          <mxGeometry x="1000" y="410" width="160" height="148" as="geometry" />
        </mxCell>
        <mxCell id="VkRTKcIYfJcJh1spQje6-89" value="- roomName: string&lt;div&gt;- sessionID : string&lt;/div&gt;&lt;div&gt;- userID : string&lt;br&gt;&lt;div&gt;&lt;br&gt;&lt;/div&gt;&lt;/div&gt;" style="text;strokeColor=none;fillColor=none;align=left;verticalAlign=top;spacingLeft=4;spacingRight=4;overflow=hidden;rotatable=0;points=[[0,0.5],[1,0.5]];portConstraint=eastwest;whiteSpace=wrap;html=1;" parent="VkRTKcIYfJcJh1spQje6-88" vertex="1">
          <mxGeometry y="26" width="160" height="54" as="geometry" />
        </mxCell>
        <mxCell id="VkRTKcIYfJcJh1spQje6-90" value="" style="line;strokeWidth=1;fillColor=none;align=left;verticalAlign=middle;spacingTop=-1;spacingLeft=3;spacingRight=3;rotatable=0;labelPosition=right;points=[];portConstraint=eastwest;strokeColor=inherit;" parent="VkRTKcIYfJcJh1spQje6-88" vertex="1">
          <mxGeometry y="80" width="160" height="8" as="geometry" />
        </mxCell>
        <mxCell id="VkRTKcIYfJcJh1spQje6-91" value="+ getRoomName(): string&lt;div&gt;+ getSessionID() : string&lt;/div&gt;&lt;div&gt;+ getUserID() : string&lt;/div&gt;" style="text;strokeColor=none;fillColor=none;align=left;verticalAlign=top;spacingLeft=4;spacingRight=4;overflow=hidden;rotatable=0;points=[[0,0.5],[1,0.5]];portConstraint=eastwest;whiteSpace=wrap;html=1;" parent="VkRTKcIYfJcJh1spQje6-88" vertex="1">
          <mxGeometry y="88" width="160" height="60" as="geometry" />
        </mxCell>
        <mxCell id="VkRTKcIYfJcJh1spQje6-94" value="CmdParam" style="swimlane;fontStyle=1;align=center;verticalAlign=top;childLayout=stackLayout;horizontal=1;startSize=26;horizontalStack=0;resizeParent=1;resizeParentMax=0;resizeLast=0;collapsible=1;marginBottom=0;whiteSpace=wrap;html=1;" parent="WIyWlLk6GJQsqaUBKTNV-1" vertex="1">
          <mxGeometry x="710" y="402" width="160" height="86" as="geometry" />
        </mxCell>
        <mxCell id="VkRTKcIYfJcJh1spQje6-95" value="- type: int" style="text;strokeColor=none;fillColor=none;align=left;verticalAlign=top;spacingLeft=4;spacingRight=4;overflow=hidden;rotatable=0;points=[[0,0.5],[1,0.5]];portConstraint=eastwest;whiteSpace=wrap;html=1;" parent="VkRTKcIYfJcJh1spQje6-94" vertex="1">
          <mxGeometry y="26" width="160" height="26" as="geometry" />
        </mxCell>
        <mxCell id="VkRTKcIYfJcJh1spQje6-96" value="" style="line;strokeWidth=1;fillColor=none;align=left;verticalAlign=middle;spacingTop=-1;spacingLeft=3;spacingRight=3;rotatable=0;labelPosition=right;points=[];portConstraint=eastwest;strokeColor=inherit;" parent="VkRTKcIYfJcJh1spQje6-94" vertex="1">
          <mxGeometry y="52" width="160" height="8" as="geometry" />
        </mxCell>
        <mxCell id="VkRTKcIYfJcJh1spQje6-97" value="+ getType(): int" style="text;strokeColor=none;fillColor=none;align=left;verticalAlign=top;spacingLeft=4;spacingRight=4;overflow=hidden;rotatable=0;points=[[0,0.5],[1,0.5]];portConstraint=eastwest;whiteSpace=wrap;html=1;" parent="VkRTKcIYfJcJh1spQje6-94" vertex="1">
          <mxGeometry y="60" width="160" height="26" as="geometry" />
        </mxCell>
        <mxCell id="VkRTKcIYfJcJh1spQje6-104" value="" style="endArrow=diamondThin;endFill=1;endSize=24;html=1;rounded=0;exitX=0;exitY=0.5;exitDx=0;exitDy=0;" parent="WIyWlLk6GJQsqaUBKTNV-1" source="VkRTKcIYfJcJh1spQje6-95" target="rcq0nQvIJ5vLg4Cy14LK-0" edge="1">
          <mxGeometry width="160" relative="1" as="geometry">
            <mxPoint x="570" y="479" as="sourcePoint" />
            <mxPoint x="530" y="441" as="targetPoint" />
          </mxGeometry>
        </mxCell>
        <mxCell id="VkRTKcIYfJcJh1spQje6-105" value="Extends" style="endArrow=block;endSize=16;endFill=0;html=1;rounded=0;exitX=0;exitY=0.5;exitDx=0;exitDy=0;entryX=1;entryY=0;entryDx=0;entryDy=0;" parent="WIyWlLk6GJQsqaUBKTNV-1" source="VkRTKcIYfJcJh1spQje6-77" target="VkRTKcIYfJcJh1spQje6-94" edge="1">
          <mxGeometry width="160" relative="1" as="geometry">
            <mxPoint x="570" y="479" as="sourcePoint" />
            <mxPoint x="730" y="479" as="targetPoint" />
          </mxGeometry>
        </mxCell>
        <mxCell id="VkRTKcIYfJcJh1spQje6-106" value="Extends" style="endArrow=block;endSize=16;endFill=0;html=1;rounded=0;exitX=0;exitY=0.5;exitDx=0;exitDy=0;entryX=1;entryY=0.5;entryDx=0;entryDy=0;" parent="WIyWlLk6GJQsqaUBKTNV-1" source="VkRTKcIYfJcJh1spQje6-81" target="VkRTKcIYfJcJh1spQje6-95" edge="1">
          <mxGeometry width="160" relative="1" as="geometry">
            <mxPoint x="570" y="549" as="sourcePoint" />
            <mxPoint x="730" y="549" as="targetPoint" />
          </mxGeometry>
        </mxCell>
        <mxCell id="VkRTKcIYfJcJh1spQje6-107" value="Extends" style="endArrow=block;endSize=16;endFill=0;html=1;rounded=0;exitX=0;exitY=0.5;exitDx=0;exitDy=0;entryX=1.007;entryY=-0.074;entryDx=0;entryDy=0;entryPerimeter=0;" parent="WIyWlLk6GJQsqaUBKTNV-1" source="VkRTKcIYfJcJh1spQje6-84" target="VkRTKcIYfJcJh1spQje6-97" edge="1">
          <mxGeometry width="160" relative="1" as="geometry">
            <mxPoint x="570" y="549" as="sourcePoint" />
            <mxPoint x="730" y="549" as="targetPoint" />
          </mxGeometry>
        </mxCell>
        <mxCell id="VkRTKcIYfJcJh1spQje6-108" value="Extends" style="endArrow=block;endSize=16;endFill=0;html=1;rounded=0;exitX=0;exitY=0.5;exitDx=0;exitDy=0;entryX=1;entryY=0.5;entryDx=0;entryDy=0;" parent="WIyWlLk6GJQsqaUBKTNV-1" source="VkRTKcIYfJcJh1spQje6-89" target="VkRTKcIYfJcJh1spQje6-97" edge="1">
          <mxGeometry width="160" relative="1" as="geometry">
            <mxPoint x="570" y="549" as="sourcePoint" />
            <mxPoint x="730" y="549" as="targetPoint" />
          </mxGeometry>
        </mxCell>
        <mxCell id="VkRTKcIYfJcJh1spQje6-113" value="" style="endArrow=open;endFill=1;endSize=12;html=1;rounded=0;" parent="WIyWlLk6GJQsqaUBKTNV-1" source="KXwamz8EoUctE45iLLeX-6" target="KXwamz8EoUctE45iLLeX-1" edge="1">
          <mxGeometry width="160" relative="1" as="geometry">
            <mxPoint x="640" y="599" as="sourcePoint" />
            <mxPoint x="610" y="216" as="targetPoint" />
            <Array as="points">
              <mxPoint x="640" y="204" />
            </Array>
          </mxGeometry>
        </mxCell>
        <mxCell id="VkRTKcIYfJcJh1spQje6-114" value="" style="endArrow=block;dashed=1;endFill=0;endSize=12;html=1;rounded=0;entryX=0.5;entryY=1;entryDx=0;entryDy=0;" parent="WIyWlLk6GJQsqaUBKTNV-1" source="KXwamz8EoUctE45iLLeX-7" edge="1">
          <mxGeometry width="160" relative="1" as="geometry">
            <mxPoint x="640" y="709" as="sourcePoint" />
            <mxPoint x="640" y="649" as="targetPoint" />
          </mxGeometry>
        </mxCell>
        <mxCell id="VkRTKcIYfJcJh1spQje6-115" value="" style="endArrow=diamondThin;endFill=1;endSize=24;html=1;rounded=0;" parent="WIyWlLk6GJQsqaUBKTNV-1" source="KXwamz8EoUctE45iLLeX-9" target="KXwamz8EoUctE45iLLeX-7" edge="1">
          <mxGeometry width="160" relative="1" as="geometry">
            <mxPoint x="637.5" y="874" as="sourcePoint" />
            <mxPoint x="640" y="743" as="targetPoint" />
          </mxGeometry>
        </mxCell>
        <mxCell id="VkRTKcIYfJcJh1spQje6-116" value="CmdResp" style="swimlane;fontStyle=1;align=center;verticalAlign=top;childLayout=stackLayout;horizontal=1;startSize=26;horizontalStack=0;resizeParent=1;resizeParentMax=0;resizeLast=0;collapsible=1;marginBottom=0;whiteSpace=wrap;html=1;" parent="WIyWlLk6GJQsqaUBKTNV-1" vertex="1">
          <mxGeometry x="1320" y="807" width="160" height="34" as="geometry" />
        </mxCell>
        <mxCell id="VkRTKcIYfJcJh1spQje6-118" value="" style="line;strokeWidth=1;fillColor=none;align=left;verticalAlign=middle;spacingTop=-1;spacingLeft=3;spacingRight=3;rotatable=0;labelPosition=right;points=[];portConstraint=eastwest;strokeColor=inherit;" parent="VkRTKcIYfJcJh1spQje6-116" vertex="1">
          <mxGeometry y="26" width="160" height="8" as="geometry" />
        </mxCell>
        <mxCell id="VkRTKcIYfJcJh1spQje6-129" value="Signup" style="swimlane;fontStyle=1;align=center;verticalAlign=top;childLayout=stackLayout;horizontal=1;startSize=26;horizontalStack=0;resizeParent=1;resizeParentMax=0;resizeLast=0;collapsible=1;marginBottom=0;whiteSpace=wrap;html=1;" parent="WIyWlLk6GJQsqaUBKTNV-1" vertex="1">
          <mxGeometry x="1000" y="770" width="160" height="80" as="geometry" />
        </mxCell>
        <mxCell id="VkRTKcIYfJcJh1spQje6-131" value="" style="line;strokeWidth=1;fillColor=none;align=left;verticalAlign=middle;spacingTop=-1;spacingLeft=3;spacingRight=3;rotatable=0;labelPosition=right;points=[];portConstraint=eastwest;strokeColor=inherit;" parent="VkRTKcIYfJcJh1spQje6-129" vertex="1">
          <mxGeometry y="26" width="160" height="8" as="geometry" />
        </mxCell>
        <mxCell id="VkRTKcIYfJcJh1spQje6-132" value="+ execute(): CmdResp" style="text;strokeColor=none;fillColor=none;align=left;verticalAlign=top;spacingLeft=4;spacingRight=4;overflow=hidden;rotatable=0;points=[[0,0.5],[1,0.5]];portConstraint=eastwest;whiteSpace=wrap;html=1;" parent="VkRTKcIYfJcJh1spQje6-129" vertex="1">
          <mxGeometry y="34" width="160" height="46" as="geometry" />
        </mxCell>
        <mxCell id="yB7Ur1lYeXoFKe_M32Ow-0" value="Login" style="swimlane;fontStyle=1;align=center;verticalAlign=top;childLayout=stackLayout;horizontal=1;startSize=26;horizontalStack=0;resizeParent=1;resizeParentMax=0;resizeLast=0;collapsible=1;marginBottom=0;whiteSpace=wrap;html=1;" parent="WIyWlLk6GJQsqaUBKTNV-1" vertex="1">
          <mxGeometry x="1000" y="859" width="160" height="80" as="geometry" />
        </mxCell>
        <mxCell id="yB7Ur1lYeXoFKe_M32Ow-1" value="" style="line;strokeWidth=1;fillColor=none;align=left;verticalAlign=middle;spacingTop=-1;spacingLeft=3;spacingRight=3;rotatable=0;labelPosition=right;points=[];portConstraint=eastwest;strokeColor=inherit;" parent="yB7Ur1lYeXoFKe_M32Ow-0" vertex="1">
          <mxGeometry y="26" width="160" height="8" as="geometry" />
        </mxCell>
        <mxCell id="yB7Ur1lYeXoFKe_M32Ow-2" value="+ execute(): CmdResp" style="text;strokeColor=none;fillColor=none;align=left;verticalAlign=top;spacingLeft=4;spacingRight=4;overflow=hidden;rotatable=0;points=[[0,0.5],[1,0.5]];portConstraint=eastwest;whiteSpace=wrap;html=1;" parent="yB7Ur1lYeXoFKe_M32Ow-0" vertex="1">
          <mxGeometry y="34" width="160" height="46" as="geometry" />
        </mxCell>
        <mxCell id="yB7Ur1lYeXoFKe_M32Ow-6" value="CreatingRoom" style="swimlane;fontStyle=1;align=center;verticalAlign=top;childLayout=stackLayout;horizontal=1;startSize=26;horizontalStack=0;resizeParent=1;resizeParentMax=0;resizeLast=0;collapsible=1;marginBottom=0;whiteSpace=wrap;html=1;" parent="WIyWlLk6GJQsqaUBKTNV-1" vertex="1">
          <mxGeometry x="1000" y="1040" width="160" height="80" as="geometry" />
        </mxCell>
        <mxCell id="yB7Ur1lYeXoFKe_M32Ow-7" value="" style="line;strokeWidth=1;fillColor=none;align=left;verticalAlign=middle;spacingTop=-1;spacingLeft=3;spacingRight=3;rotatable=0;labelPosition=right;points=[];portConstraint=eastwest;strokeColor=inherit;" parent="yB7Ur1lYeXoFKe_M32Ow-6" vertex="1">
          <mxGeometry y="26" width="160" height="8" as="geometry" />
        </mxCell>
        <mxCell id="yB7Ur1lYeXoFKe_M32Ow-8" value="+ execute(): CmdResp" style="text;strokeColor=none;fillColor=none;align=left;verticalAlign=top;spacingLeft=4;spacingRight=4;overflow=hidden;rotatable=0;points=[[0,0.5],[1,0.5]];portConstraint=eastwest;whiteSpace=wrap;html=1;" parent="yB7Ur1lYeXoFKe_M32Ow-6" vertex="1">
          <mxGeometry y="34" width="160" height="46" as="geometry" />
        </mxCell>
        <mxCell id="yB7Ur1lYeXoFKe_M32Ow-9" value="ListingRoom" style="swimlane;fontStyle=1;align=center;verticalAlign=top;childLayout=stackLayout;horizontal=1;startSize=26;horizontalStack=0;resizeParent=1;resizeParentMax=0;resizeLast=0;collapsible=1;marginBottom=0;whiteSpace=wrap;html=1;" parent="WIyWlLk6GJQsqaUBKTNV-1" vertex="1">
          <mxGeometry x="1000" y="1130" width="160" height="80" as="geometry" />
        </mxCell>
        <mxCell id="yB7Ur1lYeXoFKe_M32Ow-10" value="" style="line;strokeWidth=1;fillColor=none;align=left;verticalAlign=middle;spacingTop=-1;spacingLeft=3;spacingRight=3;rotatable=0;labelPosition=right;points=[];portConstraint=eastwest;strokeColor=inherit;" parent="yB7Ur1lYeXoFKe_M32Ow-9" vertex="1">
          <mxGeometry y="26" width="160" height="8" as="geometry" />
        </mxCell>
        <mxCell id="yB7Ur1lYeXoFKe_M32Ow-11" value="+ execute(): CmdResp" style="text;strokeColor=none;fillColor=none;align=left;verticalAlign=top;spacingLeft=4;spacingRight=4;overflow=hidden;rotatable=0;points=[[0,0.5],[1,0.5]];portConstraint=eastwest;whiteSpace=wrap;html=1;" parent="yB7Ur1lYeXoFKe_M32Ow-9" vertex="1">
          <mxGeometry y="34" width="160" height="46" as="geometry" />
        </mxCell>
        <mxCell id="yB7Ur1lYeXoFKe_M32Ow-12" value="JoinningRoom" style="swimlane;fontStyle=1;align=center;verticalAlign=top;childLayout=stackLayout;horizontal=1;startSize=26;horizontalStack=0;resizeParent=1;resizeParentMax=0;resizeLast=0;collapsible=1;marginBottom=0;whiteSpace=wrap;html=1;" parent="WIyWlLk6GJQsqaUBKTNV-1" vertex="1">
          <mxGeometry x="1000" y="1220" width="160" height="80" as="geometry" />
        </mxCell>
        <mxCell id="yB7Ur1lYeXoFKe_M32Ow-13" value="" style="line;strokeWidth=1;fillColor=none;align=left;verticalAlign=middle;spacingTop=-1;spacingLeft=3;spacingRight=3;rotatable=0;labelPosition=right;points=[];portConstraint=eastwest;strokeColor=inherit;" parent="yB7Ur1lYeXoFKe_M32Ow-12" vertex="1">
          <mxGeometry y="26" width="160" height="8" as="geometry" />
        </mxCell>
        <mxCell id="yB7Ur1lYeXoFKe_M32Ow-14" value="+ execute(): CmdResp" style="text;strokeColor=none;fillColor=none;align=left;verticalAlign=top;spacingLeft=4;spacingRight=4;overflow=hidden;rotatable=0;points=[[0,0.5],[1,0.5]];portConstraint=eastwest;whiteSpace=wrap;html=1;" parent="yB7Ur1lYeXoFKe_M32Ow-12" vertex="1">
          <mxGeometry y="34" width="160" height="46" as="geometry" />
        </mxCell>
        <mxCell id="yB7Ur1lYeXoFKe_M32Ow-16" value="ChattingRoom" style="swimlane;fontStyle=1;align=center;verticalAlign=top;childLayout=stackLayout;horizontal=1;startSize=26;horizontalStack=0;resizeParent=1;resizeParentMax=0;resizeLast=0;collapsible=1;marginBottom=0;whiteSpace=wrap;html=1;" parent="WIyWlLk6GJQsqaUBKTNV-1" vertex="1">
          <mxGeometry x="1000" y="1310" width="160" height="80" as="geometry" />
        </mxCell>
        <mxCell id="yB7Ur1lYeXoFKe_M32Ow-17" value="" style="line;strokeWidth=1;fillColor=none;align=left;verticalAlign=middle;spacingTop=-1;spacingLeft=3;spacingRight=3;rotatable=0;labelPosition=right;points=[];portConstraint=eastwest;strokeColor=inherit;" parent="yB7Ur1lYeXoFKe_M32Ow-16" vertex="1">
          <mxGeometry y="26" width="160" height="8" as="geometry" />
        </mxCell>
        <mxCell id="yB7Ur1lYeXoFKe_M32Ow-18" value="+ execute(): CmdResp" style="text;strokeColor=none;fillColor=none;align=left;verticalAlign=top;spacingLeft=4;spacingRight=4;overflow=hidden;rotatable=0;points=[[0,0.5],[1,0.5]];portConstraint=eastwest;whiteSpace=wrap;html=1;" parent="yB7Ur1lYeXoFKe_M32Ow-16" vertex="1">
          <mxGeometry y="34" width="160" height="46" as="geometry" />
        </mxCell>
        <mxCell id="yB7Ur1lYeXoFKe_M32Ow-19" value="" style="endArrow=open;endFill=1;endSize=12;html=1;rounded=0;" parent="WIyWlLk6GJQsqaUBKTNV-1" source="VkRTKcIYfJcJh1spQje6-132" target="VkRTKcIYfJcJh1spQje6-116" edge="1">
          <mxGeometry width="160" relative="1" as="geometry">
            <mxPoint x="850" y="1230" as="sourcePoint" />
            <mxPoint x="1010" y="1230" as="targetPoint" />
          </mxGeometry>
        </mxCell>
        <mxCell id="yB7Ur1lYeXoFKe_M32Ow-3" value="Logout" style="swimlane;fontStyle=1;align=center;verticalAlign=top;childLayout=stackLayout;horizontal=1;startSize=26;horizontalStack=0;resizeParent=1;resizeParentMax=0;resizeLast=0;collapsible=1;marginBottom=0;whiteSpace=wrap;html=1;" parent="WIyWlLk6GJQsqaUBKTNV-1" vertex="1">
          <mxGeometry x="1000" y="950" width="160" height="80" as="geometry" />
        </mxCell>
        <mxCell id="yB7Ur1lYeXoFKe_M32Ow-4" value="" style="line;strokeWidth=1;fillColor=none;align=left;verticalAlign=middle;spacingTop=-1;spacingLeft=3;spacingRight=3;rotatable=0;labelPosition=right;points=[];portConstraint=eastwest;strokeColor=inherit;" parent="yB7Ur1lYeXoFKe_M32Ow-3" vertex="1">
          <mxGeometry y="26" width="160" height="8" as="geometry" />
        </mxCell>
        <mxCell id="yB7Ur1lYeXoFKe_M32Ow-5" value="+ execute(): CmdResp" style="text;strokeColor=none;fillColor=none;align=left;verticalAlign=top;spacingLeft=4;spacingRight=4;overflow=hidden;rotatable=0;points=[[0,0.5],[1,0.5]];portConstraint=eastwest;whiteSpace=wrap;html=1;" parent="yB7Ur1lYeXoFKe_M32Ow-3" vertex="1">
          <mxGeometry y="34" width="160" height="46" as="geometry" />
        </mxCell>
        <mxCell id="yB7Ur1lYeXoFKe_M32Ow-27" value="" style="endArrow=open;endFill=1;endSize=12;html=1;rounded=0;" parent="WIyWlLk6GJQsqaUBKTNV-1" source="yB7Ur1lYeXoFKe_M32Ow-0" target="VkRTKcIYfJcJh1spQje6-116" edge="1">
          <mxGeometry width="160" relative="1" as="geometry">
            <mxPoint x="1200" y="900" as="sourcePoint" />
            <mxPoint x="1360" y="910" as="targetPoint" />
            <Array as="points">
              <mxPoint x="1400" y="900" />
            </Array>
          </mxGeometry>
        </mxCell>
        <mxCell id="yB7Ur1lYeXoFKe_M32Ow-28" value="" style="endArrow=open;endFill=1;endSize=12;html=1;rounded=0;" parent="WIyWlLk6GJQsqaUBKTNV-1" source="yB7Ur1lYeXoFKe_M32Ow-3" target="VkRTKcIYfJcJh1spQje6-116" edge="1">
          <mxGeometry width="160" relative="1" as="geometry">
            <mxPoint x="550" y="840" as="sourcePoint" />
            <mxPoint x="710" y="840" as="targetPoint" />
            <Array as="points">
              <mxPoint x="1400" y="990" />
            </Array>
          </mxGeometry>
        </mxCell>
        <mxCell id="yB7Ur1lYeXoFKe_M32Ow-29" value="" style="endArrow=open;endFill=1;endSize=12;html=1;rounded=0;" parent="WIyWlLk6GJQsqaUBKTNV-1" source="yB7Ur1lYeXoFKe_M32Ow-6" target="VkRTKcIYfJcJh1spQje6-116" edge="1">
          <mxGeometry width="160" relative="1" as="geometry">
            <mxPoint x="550" y="840" as="sourcePoint" />
            <mxPoint x="710" y="840" as="targetPoint" />
            <Array as="points">
              <mxPoint x="1400" y="1080" />
            </Array>
          </mxGeometry>
        </mxCell>
        <mxCell id="yB7Ur1lYeXoFKe_M32Ow-30" value="" style="endArrow=open;endFill=1;endSize=12;html=1;rounded=0;" parent="WIyWlLk6GJQsqaUBKTNV-1" source="yB7Ur1lYeXoFKe_M32Ow-9" target="VkRTKcIYfJcJh1spQje6-116" edge="1">
          <mxGeometry width="160" relative="1" as="geometry">
            <mxPoint x="550" y="930" as="sourcePoint" />
            <mxPoint x="710" y="930" as="targetPoint" />
            <Array as="points">
              <mxPoint x="1400" y="1170" />
            </Array>
          </mxGeometry>
        </mxCell>
        <mxCell id="yB7Ur1lYeXoFKe_M32Ow-31" value="" style="endArrow=open;endFill=1;endSize=12;html=1;rounded=0;" parent="WIyWlLk6GJQsqaUBKTNV-1" source="yB7Ur1lYeXoFKe_M32Ow-12" target="VkRTKcIYfJcJh1spQje6-116" edge="1">
          <mxGeometry width="160" relative="1" as="geometry">
            <mxPoint x="550" y="1020" as="sourcePoint" />
            <mxPoint x="710" y="1020" as="targetPoint" />
            <Array as="points">
              <mxPoint x="1400" y="1260" />
            </Array>
          </mxGeometry>
        </mxCell>
        <mxCell id="yB7Ur1lYeXoFKe_M32Ow-32" value="" style="endArrow=open;endFill=1;endSize=12;html=1;rounded=0;" parent="WIyWlLk6GJQsqaUBKTNV-1" source="yB7Ur1lYeXoFKe_M32Ow-16" target="VkRTKcIYfJcJh1spQje6-116" edge="1">
          <mxGeometry width="160" relative="1" as="geometry">
            <mxPoint x="550" y="1110" as="sourcePoint" />
            <mxPoint x="710" y="1110" as="targetPoint" />
            <Array as="points">
              <mxPoint x="1400" y="1350" />
            </Array>
          </mxGeometry>
        </mxCell>
        <mxCell id="yB7Ur1lYeXoFKe_M32Ow-33" value="" style="endArrow=block;dashed=1;endFill=0;endSize=12;html=1;rounded=0;" parent="WIyWlLk6GJQsqaUBKTNV-1" source="VkRTKcIYfJcJh1spQje6-129" target="KXwamz8EoUctE45iLLeX-9" edge="1">
          <mxGeometry width="160" relative="1" as="geometry">
            <mxPoint x="780" y="930" as="sourcePoint" />
            <mxPoint x="692.5" y="886.3451327433629" as="targetPoint" />
            <Array as="points">
              <mxPoint x="920" y="834" />
            </Array>
          </mxGeometry>
        </mxCell>
        <mxCell id="yB7Ur1lYeXoFKe_M32Ow-34" value="" style="endArrow=block;dashed=1;endFill=0;endSize=12;html=1;rounded=0;" parent="WIyWlLk6GJQsqaUBKTNV-1" source="yB7Ur1lYeXoFKe_M32Ow-0" target="KXwamz8EoUctE45iLLeX-9" edge="1">
          <mxGeometry width="160" relative="1" as="geometry">
            <mxPoint x="780" y="930" as="sourcePoint" />
            <mxPoint x="692.5" y="887.5132743362831" as="targetPoint" />
            <Array as="points">
              <mxPoint x="920" y="840" />
            </Array>
          </mxGeometry>
        </mxCell>
        <mxCell id="yB7Ur1lYeXoFKe_M32Ow-35" value="" style="endArrow=block;dashed=1;endFill=0;endSize=12;html=1;rounded=0;" parent="WIyWlLk6GJQsqaUBKTNV-1" source="yB7Ur1lYeXoFKe_M32Ow-3" target="KXwamz8EoUctE45iLLeX-9" edge="1">
          <mxGeometry width="160" relative="1" as="geometry">
            <mxPoint x="780" y="930" as="sourcePoint" />
            <mxPoint x="692.5" y="910.310734463277" as="targetPoint" />
          </mxGeometry>
        </mxCell>
        <mxCell id="yB7Ur1lYeXoFKe_M32Ow-36" value="" style="endArrow=block;dashed=1;endFill=0;endSize=12;html=1;rounded=0;" parent="WIyWlLk6GJQsqaUBKTNV-1" source="yB7Ur1lYeXoFKe_M32Ow-6" target="KXwamz8EoUctE45iLLeX-9" edge="1">
          <mxGeometry width="160" relative="1" as="geometry">
            <mxPoint x="780" y="930" as="sourcePoint" />
            <mxPoint x="692.5" y="910.2682926829268" as="targetPoint" />
            <Array as="points">
              <mxPoint x="740" y="920" />
            </Array>
          </mxGeometry>
        </mxCell>
        <mxCell id="yB7Ur1lYeXoFKe_M32Ow-37" value="" style="endArrow=block;dashed=1;endFill=0;endSize=12;html=1;rounded=0;" parent="WIyWlLk6GJQsqaUBKTNV-1" source="yB7Ur1lYeXoFKe_M32Ow-9" target="KXwamz8EoUctE45iLLeX-9" edge="1">
          <mxGeometry width="160" relative="1" as="geometry">
            <mxPoint x="540" y="1130" as="sourcePoint" />
            <mxPoint x="669.5945945945946" y="924" as="targetPoint" />
            <Array as="points">
              <mxPoint x="780" y="1010" />
            </Array>
          </mxGeometry>
        </mxCell>
        <mxCell id="yB7Ur1lYeXoFKe_M32Ow-38" value="" style="endArrow=block;dashed=1;endFill=0;endSize=12;html=1;rounded=0;" parent="WIyWlLk6GJQsqaUBKTNV-1" source="yB7Ur1lYeXoFKe_M32Ow-12" target="KXwamz8EoUctE45iLLeX-9" edge="1">
          <mxGeometry width="160" relative="1" as="geometry">
            <mxPoint x="780" y="930" as="sourcePoint" />
            <mxPoint x="655.2238805970151" y="924" as="targetPoint" />
            <Array as="points">
              <mxPoint x="780" y="1100" />
            </Array>
          </mxGeometry>
        </mxCell>
        <mxCell id="yB7Ur1lYeXoFKe_M32Ow-39" value="" style="endArrow=block;dashed=1;endFill=0;endSize=12;html=1;rounded=0;" parent="WIyWlLk6GJQsqaUBKTNV-1" source="yB7Ur1lYeXoFKe_M32Ow-16" target="KXwamz8EoUctE45iLLeX-9" edge="1">
          <mxGeometry width="160" relative="1" as="geometry">
            <mxPoint x="780" y="930" as="sourcePoint" />
            <mxPoint x="648.1327800829877" y="924" as="targetPoint" />
            <Array as="points">
              <mxPoint x="740" y="1140" />
            </Array>
          </mxGeometry>
        </mxCell>
        <mxCell id="yB7Ur1lYeXoFKe_M32Ow-40" value="KeepAlive" style="swimlane;fontStyle=1;align=center;verticalAlign=top;childLayout=stackLayout;horizontal=1;startSize=26;horizontalStack=0;resizeParent=1;resizeParentMax=0;resizeLast=0;collapsible=1;marginBottom=0;whiteSpace=wrap;html=1;" parent="WIyWlLk6GJQsqaUBKTNV-1" vertex="1">
          <mxGeometry x="790" y="1310" width="160" height="34" as="geometry" />
        </mxCell>
        <mxCell id="yB7Ur1lYeXoFKe_M32Ow-42" value="" style="line;strokeWidth=1;fillColor=none;align=left;verticalAlign=middle;spacingTop=-1;spacingLeft=3;spacingRight=3;rotatable=0;labelPosition=right;points=[];portConstraint=eastwest;strokeColor=inherit;" parent="yB7Ur1lYeXoFKe_M32Ow-40" vertex="1">
          <mxGeometry y="26" width="160" height="8" as="geometry" />
        </mxCell>
        <mxCell id="yB7Ur1lYeXoFKe_M32Ow-44" value="Timer" style="swimlane;fontStyle=1;align=center;verticalAlign=top;childLayout=stackLayout;horizontal=1;startSize=26;horizontalStack=0;resizeParent=1;resizeParentMax=0;resizeLast=0;collapsible=1;marginBottom=0;whiteSpace=wrap;html=1;" parent="WIyWlLk6GJQsqaUBKTNV-1" vertex="1">
          <mxGeometry x="790" y="1430" width="160" height="74" as="geometry" />
        </mxCell>
        <mxCell id="yB7Ur1lYeXoFKe_M32Ow-46" value="" style="line;strokeWidth=1;fillColor=none;align=left;verticalAlign=middle;spacingTop=-1;spacingLeft=3;spacingRight=3;rotatable=0;labelPosition=right;points=[];portConstraint=eastwest;strokeColor=inherit;" parent="yB7Ur1lYeXoFKe_M32Ow-44" vertex="1">
          <mxGeometry y="26" width="160" height="8" as="geometry" />
        </mxCell>
        <mxCell id="yB7Ur1lYeXoFKe_M32Ow-47" value="+ start()&lt;div&gt;+ stop()&lt;/div&gt;" style="text;strokeColor=none;fillColor=none;align=left;verticalAlign=top;spacingLeft=4;spacingRight=4;overflow=hidden;rotatable=0;points=[[0,0.5],[1,0.5]];portConstraint=eastwest;whiteSpace=wrap;html=1;" parent="yB7Ur1lYeXoFKe_M32Ow-44" vertex="1">
          <mxGeometry y="34" width="160" height="40" as="geometry" />
        </mxCell>
        <mxCell id="yB7Ur1lYeXoFKe_M32Ow-48" value="Use" style="endArrow=open;endSize=12;dashed=1;html=1;rounded=0;" parent="WIyWlLk6GJQsqaUBKTNV-1" source="VkRTKcIYfJcJh1spQje6-129" target="VkRTKcIYfJcJh1spQje6-76" edge="1">
          <mxGeometry x="-0.0562" y="15" width="160" relative="1" as="geometry">
            <mxPoint x="1280" y="780" as="sourcePoint" />
            <mxPoint x="1280" y="250" as="targetPoint" />
            <Array as="points">
              <mxPoint x="1350" y="690" />
              <mxPoint x="1350" y="500" />
              <mxPoint x="1350" y="185" />
            </Array>
            <mxPoint as="offset" />
          </mxGeometry>
        </mxCell>
        <mxCell id="yB7Ur1lYeXoFKe_M32Ow-49" value="Use" style="endArrow=open;endSize=12;dashed=1;html=1;rounded=0;" parent="WIyWlLk6GJQsqaUBKTNV-1" source="yB7Ur1lYeXoFKe_M32Ow-0" target="VkRTKcIYfJcJh1spQje6-80" edge="1">
          <mxGeometry x="0.0339" y="20" width="160" relative="1" as="geometry">
            <mxPoint x="820" y="690" as="sourcePoint" />
            <mxPoint x="980" y="690" as="targetPoint" />
            <Array as="points">
              <mxPoint x="1280" y="900" />
              <mxPoint x="1280" y="590" />
              <mxPoint x="1280" y="304" />
            </Array>
            <mxPoint as="offset" />
          </mxGeometry>
        </mxCell>
        <mxCell id="yB7Ur1lYeXoFKe_M32Ow-50" value="Use" style="endArrow=open;endSize=12;dashed=1;html=1;rounded=0;" parent="WIyWlLk6GJQsqaUBKTNV-1" source="yB7Ur1lYeXoFKe_M32Ow-3" target="VkRTKcIYfJcJh1spQje6-84" edge="1">
          <mxGeometry x="0.0219" y="20" width="160" relative="1" as="geometry">
            <mxPoint x="780" y="750" as="sourcePoint" />
            <mxPoint x="940" y="750" as="targetPoint" />
            <Array as="points">
              <mxPoint x="1230" y="990" />
              <mxPoint x="1230" y="670" />
              <mxPoint x="1230" y="385" />
            </Array>
            <mxPoint as="offset" />
          </mxGeometry>
        </mxCell>
        <mxCell id="yB7Ur1lYeXoFKe_M32Ow-51" value="Use" style="endArrow=open;endSize=12;dashed=1;html=1;rounded=0;" parent="WIyWlLk6GJQsqaUBKTNV-1" source="yB7Ur1lYeXoFKe_M32Ow-6" target="VkRTKcIYfJcJh1spQje6-88" edge="1">
          <mxGeometry x="0.2033" y="20" width="160" relative="1" as="geometry">
            <mxPoint x="780" y="930" as="sourcePoint" />
            <mxPoint x="940" y="930" as="targetPoint" />
            <Array as="points">
              <mxPoint x="1200" y="1080" />
              <mxPoint x="1200" y="760" />
              <mxPoint x="1200" y="484" />
            </Array>
            <mxPoint as="offset" />
          </mxGeometry>
        </mxCell>
        <mxCell id="yB7Ur1lYeXoFKe_M32Ow-52" value="Use" style="endArrow=open;endSize=12;dashed=1;html=1;rounded=0;" parent="WIyWlLk6GJQsqaUBKTNV-1" source="yB7Ur1lYeXoFKe_M32Ow-9" target="VkRTKcIYfJcJh1spQje6-88" edge="1">
          <mxGeometry x="0.1538" y="30" width="160" relative="1" as="geometry">
            <mxPoint x="1550" y="1020" as="sourcePoint" />
            <mxPoint x="1710" y="1020" as="targetPoint" />
            <Array as="points">
              <mxPoint x="1200" y="1170" />
              <mxPoint x="1200" y="810" />
              <mxPoint x="1200" y="484" />
            </Array>
            <mxPoint as="offset" />
          </mxGeometry>
        </mxCell>
        <mxCell id="yB7Ur1lYeXoFKe_M32Ow-53" value="Use" style="endArrow=open;endSize=12;dashed=1;html=1;rounded=0;" parent="WIyWlLk6GJQsqaUBKTNV-1" source="yB7Ur1lYeXoFKe_M32Ow-12" target="VkRTKcIYfJcJh1spQje6-88" edge="1">
          <mxGeometry x="0.028" y="10" width="160" relative="1" as="geometry">
            <mxPoint x="780" y="930" as="sourcePoint" />
            <mxPoint x="940" y="930" as="targetPoint" />
            <Array as="points">
              <mxPoint x="1200" y="1260" />
              <mxPoint x="1200" y="484" />
            </Array>
            <mxPoint as="offset" />
          </mxGeometry>
        </mxCell>
        <mxCell id="yB7Ur1lYeXoFKe_M32Ow-56" value="Use" style="endArrow=open;endSize=12;dashed=1;html=1;rounded=0;" parent="WIyWlLk6GJQsqaUBKTNV-1" source="yB7Ur1lYeXoFKe_M32Ow-16" target="VkRTKcIYfJcJh1spQje6-88" edge="1">
          <mxGeometry x="0.0372" y="30" width="160" relative="1" as="geometry">
            <mxPoint x="780" y="1110" as="sourcePoint" />
            <mxPoint x="940" y="1110" as="targetPoint" />
            <Array as="points">
              <mxPoint x="1200" y="1350" />
              <mxPoint x="1200" y="484" />
            </Array>
            <mxPoint as="offset" />
          </mxGeometry>
        </mxCell>
        <mxCell id="yB7Ur1lYeXoFKe_M32Ow-57" value="JsonHelper" style="swimlane;fontStyle=1;align=center;verticalAlign=top;childLayout=stackLayout;horizontal=1;startSize=26;horizontalStack=0;resizeParent=1;resizeParentMax=0;resizeLast=0;collapsible=1;marginBottom=0;whiteSpace=wrap;html=1;" parent="WIyWlLk6GJQsqaUBKTNV-1" vertex="1">
          <mxGeometry x="265" y="1214" width="160" height="80" as="geometry" />
        </mxCell>
        <mxCell id="yB7Ur1lYeXoFKe_M32Ow-59" value="" style="line;strokeWidth=1;fillColor=none;align=left;verticalAlign=middle;spacingTop=-1;spacingLeft=3;spacingRight=3;rotatable=0;labelPosition=right;points=[];portConstraint=eastwest;strokeColor=inherit;" parent="yB7Ur1lYeXoFKe_M32Ow-57" vertex="1">
          <mxGeometry y="26" width="160" height="8" as="geometry" />
        </mxCell>
        <mxCell id="yB7Ur1lYeXoFKe_M32Ow-60" value="+ createJson()&lt;div&gt;+ parseJson(0&lt;/div&gt;" style="text;strokeColor=none;fillColor=none;align=left;verticalAlign=top;spacingLeft=4;spacingRight=4;overflow=hidden;rotatable=0;points=[[0,0.5],[1,0.5]];portConstraint=eastwest;whiteSpace=wrap;html=1;" parent="yB7Ur1lYeXoFKe_M32Ow-57" vertex="1">
          <mxGeometry y="34" width="160" height="46" as="geometry" />
        </mxCell>
        <mxCell id="yB7Ur1lYeXoFKe_M32Ow-67" value="RestApiImpl" style="swimlane;fontStyle=1;align=center;verticalAlign=top;childLayout=stackLayout;horizontal=1;startSize=26;horizontalStack=0;resizeParent=1;resizeParentMax=0;resizeLast=0;collapsible=1;marginBottom=0;whiteSpace=wrap;html=1;" parent="WIyWlLk6GJQsqaUBKTNV-1" vertex="1">
          <mxGeometry x="505" y="1090" width="160" height="80" as="geometry" />
        </mxCell>
        <mxCell id="yB7Ur1lYeXoFKe_M32Ow-69" value="" style="line;strokeWidth=1;fillColor=none;align=left;verticalAlign=middle;spacingTop=-1;spacingLeft=3;spacingRight=3;rotatable=0;labelPosition=right;points=[];portConstraint=eastwest;strokeColor=inherit;" parent="yB7Ur1lYeXoFKe_M32Ow-67" vertex="1">
          <mxGeometry y="26" width="160" height="8" as="geometry" />
        </mxCell>
        <mxCell id="yB7Ur1lYeXoFKe_M32Ow-70" value="&lt;p style=&quot;margin: 0px 0px 0px 4px;&quot;&gt;+ signup() : RestApiResp&lt;/p&gt;&lt;p style=&quot;margin: 0px 0px 0px 4px;&quot;&gt;+ ...()&lt;/p&gt;" style="text;strokeColor=none;fillColor=none;align=left;verticalAlign=top;spacingLeft=4;spacingRight=4;overflow=hidden;rotatable=0;points=[[0,0.5],[1,0.5]];portConstraint=eastwest;whiteSpace=wrap;html=1;" parent="yB7Ur1lYeXoFKe_M32Ow-67" vertex="1">
          <mxGeometry y="34" width="160" height="46" as="geometry" />
        </mxCell>
        <mxCell id="yB7Ur1lYeXoFKe_M32Ow-71" value="RestApiResp" style="swimlane;fontStyle=1;align=center;verticalAlign=top;childLayout=stackLayout;horizontal=1;startSize=26;horizontalStack=0;resizeParent=1;resizeParentMax=0;resizeLast=0;collapsible=1;marginBottom=0;whiteSpace=wrap;html=1;" parent="WIyWlLk6GJQsqaUBKTNV-1" vertex="1">
          <mxGeometry x="265" y="1090" width="160" height="70" as="geometry" />
        </mxCell>
        <mxCell id="yB7Ur1lYeXoFKe_M32Ow-73" value="" style="line;strokeWidth=1;fillColor=none;align=left;verticalAlign=middle;spacingTop=-1;spacingLeft=3;spacingRight=3;rotatable=0;labelPosition=right;points=[];portConstraint=eastwest;strokeColor=inherit;" parent="yB7Ur1lYeXoFKe_M32Ow-71" vertex="1">
          <mxGeometry y="26" width="160" height="8" as="geometry" />
        </mxCell>
        <mxCell id="yB7Ur1lYeXoFKe_M32Ow-74" value="+ getSucess()&lt;div&gt;+ getFailure()&lt;/div&gt;" style="text;strokeColor=none;fillColor=none;align=left;verticalAlign=top;spacingLeft=4;spacingRight=4;overflow=hidden;rotatable=0;points=[[0,0.5],[1,0.5]];portConstraint=eastwest;whiteSpace=wrap;html=1;" parent="yB7Ur1lYeXoFKe_M32Ow-71" vertex="1">
          <mxGeometry y="34" width="160" height="36" as="geometry" />
        </mxCell>
        <mxCell id="yB7Ur1lYeXoFKe_M32Ow-75" value="HttpAPI&lt;div&gt;&lt;br&gt;&lt;/div&gt;" style="swimlane;fontStyle=1;align=center;verticalAlign=top;childLayout=stackLayout;horizontal=1;startSize=26;horizontalStack=0;resizeParent=1;resizeParentMax=0;resizeLast=0;collapsible=1;marginBottom=0;whiteSpace=wrap;html=1;" parent="WIyWlLk6GJQsqaUBKTNV-1" vertex="1">
          <mxGeometry x="505" y="1210" width="160" height="90" as="geometry" />
        </mxCell>
        <mxCell id="yB7Ur1lYeXoFKe_M32Ow-77" value="" style="line;strokeWidth=1;fillColor=none;align=left;verticalAlign=middle;spacingTop=-1;spacingLeft=3;spacingRight=3;rotatable=0;labelPosition=right;points=[];portConstraint=eastwest;strokeColor=inherit;" parent="yB7Ur1lYeXoFKe_M32Ow-75" vertex="1">
          <mxGeometry y="26" width="160" height="8" as="geometry" />
        </mxCell>
        <mxCell id="yB7Ur1lYeXoFKe_M32Ow-78" value="+ sendPost()&lt;div&gt;+ sendGet()&lt;/div&gt;&lt;div&gt;+ sendDelete()&lt;/div&gt;" style="text;strokeColor=none;fillColor=none;align=left;verticalAlign=top;spacingLeft=4;spacingRight=4;overflow=hidden;rotatable=0;points=[[0,0.5],[1,0.5]];portConstraint=eastwest;whiteSpace=wrap;html=1;" parent="yB7Ur1lYeXoFKe_M32Ow-75" vertex="1">
          <mxGeometry y="34" width="160" height="56" as="geometry" />
        </mxCell>
        <mxCell id="yB7Ur1lYeXoFKe_M32Ow-79" value="" style="endArrow=diamondThin;endFill=1;endSize=24;html=1;rounded=0;" parent="WIyWlLk6GJQsqaUBKTNV-1" source="yB7Ur1lYeXoFKe_M32Ow-40" target="yB7Ur1lYeXoFKe_M32Ow-0" edge="1">
          <mxGeometry width="160" relative="1" as="geometry">
            <mxPoint x="490" y="990" as="sourcePoint" />
            <mxPoint x="650" y="990" as="targetPoint" />
            <Array as="points">
              <mxPoint x="860" y="900" />
            </Array>
          </mxGeometry>
        </mxCell>
        <mxCell id="yB7Ur1lYeXoFKe_M32Ow-80" value="" style="endArrow=open;endFill=1;endSize=12;html=1;rounded=0;" parent="WIyWlLk6GJQsqaUBKTNV-1" source="yB7Ur1lYeXoFKe_M32Ow-40" target="yB7Ur1lYeXoFKe_M32Ow-44" edge="1">
          <mxGeometry width="160" relative="1" as="geometry">
            <mxPoint x="490" y="1140" as="sourcePoint" />
            <mxPoint x="650" y="1140" as="targetPoint" />
          </mxGeometry>
        </mxCell>
        <mxCell id="yB7Ur1lYeXoFKe_M32Ow-82" value="" style="endArrow=block;dashed=1;endFill=0;endSize=12;html=1;rounded=0;" parent="WIyWlLk6GJQsqaUBKTNV-1" source="yB7Ur1lYeXoFKe_M32Ow-67" edge="1">
          <mxGeometry width="160" relative="1" as="geometry">
            <mxPoint x="750" y="1210" as="sourcePoint" />
            <mxPoint x="585" y="1050" as="targetPoint" />
          </mxGeometry>
        </mxCell>
        <mxCell id="yB7Ur1lYeXoFKe_M32Ow-83" value="" style="endArrow=open;endFill=1;endSize=12;html=1;rounded=0;" parent="WIyWlLk6GJQsqaUBKTNV-1" source="yB7Ur1lYeXoFKe_M32Ow-67" target="yB7Ur1lYeXoFKe_M32Ow-71" edge="1">
          <mxGeometry width="160" relative="1" as="geometry">
            <mxPoint x="750" y="1210" as="sourcePoint" />
            <mxPoint x="910" y="1210" as="targetPoint" />
          </mxGeometry>
        </mxCell>
        <mxCell id="yB7Ur1lYeXoFKe_M32Ow-84" value="" style="endArrow=diamondThin;endFill=1;endSize=24;html=1;rounded=0;" parent="WIyWlLk6GJQsqaUBKTNV-1" source="yB7Ur1lYeXoFKe_M32Ow-75" target="yB7Ur1lYeXoFKe_M32Ow-67" edge="1">
          <mxGeometry width="160" relative="1" as="geometry">
            <mxPoint x="750" y="1210" as="sourcePoint" />
            <mxPoint x="910" y="1210" as="targetPoint" />
          </mxGeometry>
        </mxCell>
        <mxCell id="yB7Ur1lYeXoFKe_M32Ow-85" value="" style="endArrow=open;endFill=1;endSize=12;html=1;rounded=0;" parent="WIyWlLk6GJQsqaUBKTNV-1" source="yB7Ur1lYeXoFKe_M32Ow-67" target="yB7Ur1lYeXoFKe_M32Ow-57" edge="1">
          <mxGeometry width="160" relative="1" as="geometry">
            <mxPoint x="750" y="1210" as="sourcePoint" />
            <mxPoint x="910" y="1210" as="targetPoint" />
          </mxGeometry>
        </mxCell>
        <mxCell id="yB7Ur1lYeXoFKe_M32Ow-86" value="" style="endArrow=open;endFill=1;endSize=12;html=1;rounded=0;" parent="WIyWlLk6GJQsqaUBKTNV-1" source="KXwamz8EoUctE45iLLeX-9" target="KXwamz8EoUctE45iLLeX-10" edge="1">
          <mxGeometry width="160" relative="1" as="geometry">
            <mxPoint x="627.0833333333335" y="924" as="sourcePoint" />
            <mxPoint x="593.4677419354839" y="1000" as="targetPoint" />
          </mxGeometry>
        </mxCell>
        <mxCell id="yB7Ur1lYeXoFKe_M32Ow-87" value="" style="endArrow=open;endFill=1;endSize=12;html=1;rounded=0;" parent="WIyWlLk6GJQsqaUBKTNV-1" source="yB7Ur1lYeXoFKe_M32Ow-16" target="yB7Ur1lYeXoFKe_M32Ow-44" edge="1">
          <mxGeometry width="160" relative="1" as="geometry">
            <mxPoint x="750" y="1210" as="sourcePoint" />
            <mxPoint x="910" y="1210" as="targetPoint" />
            <Array as="points">
              <mxPoint x="1080" y="1467" />
            </Array>
          </mxGeometry>
        </mxCell>
        <mxCell id="KXwamz8EoUctE45iLLeX-1" value="&lt;p style=&quot;margin:0px;margin-top:4px;text-align:center;&quot;&gt;&lt;i&gt;&amp;lt;&amp;lt;Interface&amp;gt;&amp;gt;&lt;/i&gt;&lt;br&gt;&lt;b&gt;CmdResultHandler&lt;/b&gt;&lt;/p&gt;&lt;hr size=&quot;1&quot; style=&quot;border-style:solid;&quot;&gt;&lt;p style=&quot;margin:0px;margin-left:4px;&quot;&gt;+ updateState()&lt;br&gt;&lt;/p&gt;" style="verticalAlign=top;align=left;overflow=fill;html=1;whiteSpace=wrap;" parent="WIyWlLk6GJQsqaUBKTNV-1" vertex="1">
          <mxGeometry x="460" y="166" width="135" height="75" as="geometry" />
        </mxCell>
        <mxCell id="KXwamz8EoUctE45iLLeX-6" value="&lt;p style=&quot;margin:0px;margin-top:4px;text-align:center;&quot;&gt;&lt;i&gt;&amp;lt;&amp;lt;Interface&amp;gt;&amp;gt;&lt;/i&gt;&lt;br&gt;&lt;b&gt;Controller&lt;/b&gt;&lt;/p&gt;&lt;hr size=&quot;1&quot; style=&quot;border-style:solid;&quot;&gt;&lt;p style=&quot;margin:0px;margin-left:4px;&quot;&gt;+ registerHandler(CmdResultHandler*)&lt;br&gt;+ unregister()&lt;/p&gt;&lt;p style=&quot;margin:0px;margin-left:4px;&quot;&gt;+ executeCmd(CmdParam*)&lt;/p&gt;" style="verticalAlign=top;align=left;overflow=fill;html=1;whiteSpace=wrap;" parent="WIyWlLk6GJQsqaUBKTNV-1" vertex="1">
          <mxGeometry x="520" y="558" width="235" height="91" as="geometry" />
        </mxCell>
        <mxCell id="KXwamz8EoUctE45iLLeX-7" value="&lt;p style=&quot;margin:0px;margin-top:4px;text-align:center;&quot;&gt;&lt;b&gt;ControllerImpl&lt;/b&gt;&lt;/p&gt;&lt;hr size=&quot;1&quot; style=&quot;border-style:solid;&quot;&gt;&lt;p style=&quot;margin:0px;margin-left:4px;&quot;&gt;+ registerHandler(CmdResultHandler*)&lt;br&gt;+ unregister()&lt;/p&gt;&lt;p style=&quot;margin:0px;margin-left:4px;&quot;&gt;+ executeCmd(CmdParam*)&lt;/p&gt;" style="verticalAlign=top;align=left;overflow=fill;html=1;whiteSpace=wrap;" parent="WIyWlLk6GJQsqaUBKTNV-1" vertex="1">
          <mxGeometry x="520" y="685" width="235" height="75" as="geometry" />
        </mxCell>
        <mxCell id="KXwamz8EoUctE45iLLeX-9" value="&lt;p style=&quot;margin:0px;margin-top:4px;text-align:center;&quot;&gt;&lt;i&gt;&amp;lt;&amp;lt;abstract&amp;gt;&amp;gt;&lt;/i&gt;&lt;br&gt;&lt;b&gt;CmdType&lt;/b&gt;&lt;/p&gt;&lt;hr size=&quot;1&quot; style=&quot;border-style:solid;&quot;&gt;&lt;p style=&quot;margin:0px;margin-left:4px;&quot;&gt;+ create()&lt;br&gt;+ execute(RestApi*, CmdParam*): CmdResp&lt;/p&gt;" style="verticalAlign=top;align=left;overflow=fill;html=1;whiteSpace=wrap;" parent="WIyWlLk6GJQsqaUBKTNV-1" vertex="1">
          <mxGeometry x="507.5" y="830" width="260" height="80" as="geometry" />
        </mxCell>
        <mxCell id="KXwamz8EoUctE45iLLeX-10" value="&lt;p style=&quot;margin:0px;margin-top:4px;text-align:center;&quot;&gt;&lt;i&gt;&amp;lt;&amp;lt;Interface&amp;gt;&amp;gt;&lt;/i&gt;&lt;br&gt;&lt;b&gt;RestAPI&lt;/b&gt;&lt;/p&gt;&lt;hr size=&quot;1&quot; style=&quot;border-style:solid;&quot;&gt;&lt;p style=&quot;margin:0px;margin-left:4px;&quot;&gt;+ signup() : RestApiResp&lt;/p&gt;&lt;p style=&quot;margin:0px;margin-left:4px;&quot;&gt;+ ...()&lt;/p&gt;&lt;p style=&quot;margin:0px;margin-left:4px;&quot;&gt;&lt;br&gt;&lt;/p&gt;" style="verticalAlign=top;align=left;overflow=fill;html=1;whiteSpace=wrap;" parent="WIyWlLk6GJQsqaUBKTNV-1" vertex="1">
          <mxGeometry x="490" y="970" width="190" height="80" as="geometry" />
        </mxCell>
        <mxCell id="SQ6FS7_-K4gIENx2hJWf-0" value="" style="endArrow=diamondThin;endFill=0;endSize=24;html=1;rounded=0;" parent="WIyWlLk6GJQsqaUBKTNV-1" source="KXwamz8EoUctE45iLLeX-6" target="rcq0nQvIJ5vLg4Cy14LK-0" edge="1">
          <mxGeometry width="160" relative="1" as="geometry">
            <mxPoint x="220" y="520" as="sourcePoint" />
            <mxPoint x="469.61538461538476" y="458" as="targetPoint" />
          </mxGeometry>
        </mxCell>
        <mxCell id="rcq0nQvIJ5vLg4Cy14LK-0" value="CmdUI" style="swimlane;fontStyle=1;align=center;verticalAlign=top;childLayout=stackLayout;horizontal=1;startSize=26;horizontalStack=0;resizeParent=1;resizeParentMax=0;resizeLast=0;collapsible=1;marginBottom=0;whiteSpace=wrap;html=1;" vertex="1" parent="WIyWlLk6GJQsqaUBKTNV-1">
          <mxGeometry x="340" y="300" width="210" height="110" as="geometry" />
        </mxCell>
        <mxCell id="rcq0nQvIJ5vLg4Cy14LK-1" value="+ mCurrentScreen : int" style="text;strokeColor=none;fillColor=none;align=left;verticalAlign=top;spacingLeft=4;spacingRight=4;overflow=hidden;rotatable=0;points=[[0,0.5],[1,0.5]];portConstraint=eastwest;whiteSpace=wrap;html=1;" vertex="1" parent="rcq0nQvIJ5vLg4Cy14LK-0">
          <mxGeometry y="26" width="210" height="26" as="geometry" />
        </mxCell>
        <mxCell id="rcq0nQvIJ5vLg4Cy14LK-2" value="" style="line;strokeWidth=1;fillColor=none;align=left;verticalAlign=middle;spacingTop=-1;spacingLeft=3;spacingRight=3;rotatable=0;labelPosition=right;points=[];portConstraint=eastwest;strokeColor=inherit;" vertex="1" parent="rcq0nQvIJ5vLg4Cy14LK-0">
          <mxGeometry y="52" width="210" height="8" as="geometry" />
        </mxCell>
        <mxCell id="rcq0nQvIJ5vLg4Cy14LK-3" value="+ print... : void&lt;div&gt;+ handle.. : shared_ptr&amp;lt;CmdParam&amp;gt;&lt;/div&gt;" style="text;strokeColor=none;fillColor=none;align=left;verticalAlign=top;spacingLeft=4;spacingRight=4;overflow=hidden;rotatable=0;points=[[0,0.5],[1,0.5]];portConstraint=eastwest;whiteSpace=wrap;html=1;" vertex="1" parent="rcq0nQvIJ5vLg4Cy14LK-0">
          <mxGeometry y="60" width="210" height="50" as="geometry" />
        </mxCell>
        <mxCell id="rcq0nQvIJ5vLg4Cy14LK-5" value="&lt;p style=&quot;margin:0px;margin-top:4px;text-align:center;&quot;&gt;&lt;i&gt;&amp;lt;&amp;lt;Interface&amp;gt;&amp;gt;&lt;/i&gt;&lt;br&gt;&lt;b&gt;UI&lt;/b&gt;&lt;/p&gt;&lt;hr size=&quot;1&quot; style=&quot;border-style:solid;&quot;&gt;&lt;p style=&quot;margin:0px;margin-left:4px;&quot;&gt;+ start(int type) : void&lt;br&gt;&lt;/p&gt;" style="verticalAlign=top;align=left;overflow=fill;html=1;whiteSpace=wrap;" vertex="1" parent="WIyWlLk6GJQsqaUBKTNV-1">
          <mxGeometry x="290" y="165" width="135" height="75" as="geometry" />
        </mxCell>
        <mxCell id="rcq0nQvIJ5vLg4Cy14LK-7" value="&amp;lt; Singletone&amp;gt;&lt;br&gt;ServerInfo" style="swimlane;fontStyle=1;align=center;verticalAlign=top;childLayout=stackLayout;horizontal=1;startSize=40;horizontalStack=0;resizeParent=1;resizeParentMax=0;resizeLast=0;collapsible=1;marginBottom=0;whiteSpace=wrap;html=1;" vertex="1" parent="WIyWlLk6GJQsqaUBKTNV-1">
          <mxGeometry x="1500" y="849" width="250" height="100" as="geometry" />
        </mxCell>
        <mxCell id="rcq0nQvIJ5vLg4Cy14LK-8" value="+ singletonObject : ServerInfo" style="text;strokeColor=none;fillColor=none;align=left;verticalAlign=top;spacingLeft=4;spacingRight=4;overflow=hidden;rotatable=0;points=[[0,0.5],[1,0.5]];portConstraint=eastwest;whiteSpace=wrap;html=1;" vertex="1" parent="rcq0nQvIJ5vLg4Cy14LK-7">
          <mxGeometry y="40" width="250" height="26" as="geometry" />
        </mxCell>
        <mxCell id="rcq0nQvIJ5vLg4Cy14LK-9" value="" style="line;strokeWidth=1;fillColor=none;align=left;verticalAlign=middle;spacingTop=-1;spacingLeft=3;spacingRight=3;rotatable=0;labelPosition=right;points=[];portConstraint=eastwest;strokeColor=inherit;" vertex="1" parent="rcq0nQvIJ5vLg4Cy14LK-7">
          <mxGeometry y="66" width="250" height="8" as="geometry" />
        </mxCell>
        <mxCell id="rcq0nQvIJ5vLg4Cy14LK-10" value="+ getInstance(): ServerInfo" style="text;strokeColor=none;fillColor=none;align=left;verticalAlign=top;spacingLeft=4;spacingRight=4;overflow=hidden;rotatable=0;points=[[0,0.5],[1,0.5]];portConstraint=eastwest;whiteSpace=wrap;html=1;" vertex="1" parent="rcq0nQvIJ5vLg4Cy14LK-7">
          <mxGeometry y="74" width="250" height="26" as="geometry" />
        </mxCell>
        <mxCell id="rcq0nQvIJ5vLg4Cy14LK-11" value="" style="endArrow=open;endFill=1;endSize=12;html=1;rounded=0;" edge="1" parent="WIyWlLk6GJQsqaUBKTNV-1" source="yB7Ur1lYeXoFKe_M32Ow-0" target="rcq0nQvIJ5vLg4Cy14LK-7">
          <mxGeometry width="160" relative="1" as="geometry">
            <mxPoint x="1330" y="1040" as="sourcePoint" />
            <mxPoint x="1490" y="1040" as="targetPoint" />
          </mxGeometry>
        </mxCell>
      </root>
    </mxGraphModel>
  </diagram>
</mxfile>
